<svg width="102" height="102" viewBox="0 0 102 102" fill="none" xmlns="http://www.w3.org/2000/svg">
<path d="M29.4833 0H72.1833C88.45 0 101.667 13.2167 101.667 29.4833V72.1833C101.667 80.0028 98.5604 87.502 93.0312 93.0312C87.502 98.5604 80.0028 101.667 72.1833 101.667H29.4833C13.2167 101.667 0 88.45 0 72.1833V29.4833C0 21.6639 3.10627 14.1647 8.63547 8.63547C14.1647 3.10627 21.6639 0 29.4833 0ZM28.4667 10.1667C23.6132 10.1667 18.9585 12.0947 15.5266 15.5266C12.0947 18.9585 10.1667 23.6132 10.1667 28.4667V73.2C10.1667 83.3158 18.3508 91.5 28.4667 91.5H73.2C78.0535 91.5 82.7081 89.572 86.1401 86.1401C89.572 82.7081 91.5 78.0535 91.5 73.2V28.4667C91.5 18.3508 83.3158 10.1667 73.2 10.1667H28.4667ZM77.5208 17.7917C79.2061 17.7917 80.8223 18.4611 82.0139 19.6528C83.2055 20.8444 83.875 22.4606 83.875 24.1458C83.875 25.8311 83.2055 27.4473 82.0139 28.6389C80.8223 29.8305 79.2061 30.5 77.5208 30.5C75.8356 30.5 74.2194 29.8305 73.0277 28.6389C71.8361 27.4473 71.1667 25.8311 71.1667 24.1458C71.1667 22.4606 71.8361 20.8444 73.0277 19.6528C74.2194 18.4611 75.8356 17.7917 77.5208 17.7917ZM50.8333 25.4167C57.5742 25.4167 64.0391 28.0945 68.8056 32.861C73.5722 37.6276 76.25 44.0924 76.25 50.8333C76.25 57.5742 73.5722 64.0391 68.8056 68.8056C64.0391 73.5722 57.5742 76.25 50.8333 76.25C44.0924 76.25 37.6276 73.5722 32.861 68.8056C28.0945 64.0391 25.4167 57.5742 25.4167 50.8333C25.4167 44.0924 28.0945 37.6276 32.861 32.861C37.6276 28.0945 44.0924 25.4167 50.8333 25.4167ZM50.8333 35.5833C46.7888 35.5833 42.9099 37.19 40.0499 40.0499C37.19 42.9099 35.5833 46.7888 35.5833 50.8333C35.5833 54.8779 37.19 58.7568 40.0499 61.6167C42.9099 64.4766 46.7888 66.0833 50.8333 66.0833C54.8779 66.0833 58.7568 64.4766 61.6167 61.6167C64.4766 58.7568 66.0833 54.8779 66.0833 50.8333C66.0833 46.7888 64.4766 42.9099 61.6167 40.0499C58.7568 37.19 54.8779 35.5833 50.8333 35.5833Z" fill="black"/>
</svg>
