<svg width="208" height="208" viewBox="0 0 208 208" fill="none" xmlns="http://www.w3.org/2000/svg">
<path d="M177.541 30.4613C158.037 10.9572 131.584 -2.05508e-07 104.001 0C76.4184 2.05508e-07 49.9653 10.9572 30.4613 30.4613C10.9572 49.9653 2.05508e-07 76.4184 0 104.001C-2.05508e-07 131.584 10.9572 158.037 30.4613 177.541C49.9653 197.045 76.4184 208.003 104.001 208.003C131.584 208.003 158.037 197.045 177.541 177.541C197.045 158.037 208.003 131.584 208.003 104.001C208.003 76.4184 197.045 49.9653 177.541 30.4613ZM104.001 146.871C100.066 142.387 94.9536 139.095 89.2428 137.368C83.5321 135.641 77.4518 135.549 71.6913 137.101L87.0013 104.001H121.001L136.271 137.101C130.517 135.557 124.444 135.653 118.742 137.38C113.039 139.106 107.933 142.394 104.001 146.871ZM144.001 182.371C134.019 187.453 123.158 190.583 112.001 191.591V168.001C112.001 163.758 113.687 159.688 116.688 156.688C119.688 153.687 123.758 152.001 128.001 152.001C132.245 152.001 136.314 153.687 139.315 156.688C142.316 159.688 144.001 163.758 144.001 168.001V182.371ZM166.221 166.231C164.221 168.231 162.141 170.101 160.001 171.871V152.001C160.003 150.844 159.75 149.7 159.261 148.651L111.261 44.6513C110.62 43.2658 109.596 42.0927 108.309 41.2706C107.023 40.4485 105.528 40.0117 104.001 40.0117C102.475 40.0117 100.98 40.4485 99.6933 41.2706C98.4069 42.0927 97.3826 43.2658 96.7413 44.6513L48.7413 148.651C48.2522 149.7 47.9996 150.844 48.0013 152.001V171.871C45.8404 170.09 43.7647 168.208 41.7813 166.231C29.4727 153.925 21.09 138.245 17.6933 121.174C14.2965 104.103 16.0383 86.4086 22.6984 70.3279C29.3585 54.2471 40.6376 40.5024 55.1095 30.8322C69.5814 21.162 86.5959 16.0005 104.001 16.0005C121.407 16.0005 138.421 21.162 152.893 30.8322C167.365 40.5024 178.644 54.2471 185.304 70.3279C191.964 86.4086 193.706 104.103 190.309 121.174C186.913 138.245 178.53 153.925 166.221 166.231Z" fill="black"/>
</svg>
