<svg width="102" height="102" viewBox="0 0 102 102" fill="none" xmlns="http://www.w3.org/2000/svg">
<path fill-rule="evenodd" clip-rule="evenodd" d="M83.6786 19.7367C84.045 19.3178 84.3252 18.8308 84.5034 18.3036C84.6815 17.7764 84.7541 17.2193 84.7169 16.664C84.6797 16.1088 84.5335 15.5663 84.2867 15.0676C84.0399 14.5688 83.6972 14.1235 83.2783 13.7572C82.8594 13.3909 82.3725 13.1106 81.8453 12.9325C81.3181 12.7544 80.7609 12.6818 80.2057 12.719C79.6504 12.7562 79.108 12.9023 78.6092 13.1492C78.1104 13.396 77.6652 13.7386 77.2989 14.1575L55.6516 38.8972L37.279 14.4032C36.8844 13.8771 36.3727 13.4501 35.7845 13.156C35.1963 12.8619 34.5477 12.7087 33.89 12.7087H16.945C16.1583 12.7087 15.3871 12.9278 14.7179 13.3414C14.0487 13.755 13.5078 14.3468 13.156 15.0505C12.8042 15.7541 12.6552 16.5419 12.7259 17.3254C12.7965 18.109 13.084 18.8574 13.556 19.4867L40.8247 55.8422L17.9914 81.9375C17.625 82.3564 17.3448 82.8434 17.1667 83.3706C16.9885 83.8978 16.916 84.4549 16.9531 85.0102C16.9903 85.5654 17.1365 86.1079 17.3833 86.6067C17.6301 87.1054 17.9728 87.5507 18.3917 87.917C18.8106 88.2833 19.2975 88.5636 19.8247 88.7417C20.352 88.9199 20.9091 88.9924 21.4643 88.9552C22.0196 88.9181 22.5621 88.7719 23.0608 88.5251C23.5596 88.2782 24.0048 87.9356 24.3712 87.5167L46.0184 62.7727L64.391 87.2667C64.7856 87.7929 65.2973 88.2199 65.8855 88.514C66.4737 88.8081 67.1223 88.9612 67.78 88.9612H84.725C85.5117 88.9612 86.2829 88.7422 86.9521 88.3286C87.6214 87.915 88.1622 87.3232 88.514 86.6195C88.8659 85.9158 89.0148 85.1281 88.9441 84.3446C88.8735 83.561 88.586 82.8126 88.114 82.1832L60.8453 45.8277L83.6786 19.7367ZM69.8981 80.4887L25.4175 21.1812H31.7719L76.2525 80.4887H69.8981Z" fill="black"/>
</svg>
